<svg width="inherit" height="inherit" viewBox="0 0 80 80" fill="none" xmlns="http://www.w3.org/2000/svg">
<path d="M76.8517 24.4238C76.4097 23.3887 75.9245 22.375 75.407 21.383H61.7574C66.1994 26.5697 68.6253 33.0935 68.6253 39.9947C68.6253 47.6399 65.6496 54.8322 60.2372 60.2346C54.8248 65.6369 47.6442 68.6239 40 68.6239C32.3558 68.6239 25.1644 65.6477 19.7628 60.2346C14.3612 54.8215 11.3747 47.6399 11.3747 39.9947C11.3747 33.0935 13.8006 26.5697 18.2426 21.383H4.59299C4.07547 22.375 3.59029 23.3887 3.14825 24.4238C1.0566 29.3625 0 34.5923 0 39.9947C0 45.397 1.0566 50.6268 3.14825 55.5655C5.16442 60.3316 8.04312 64.6018 11.7197 68.2788C15.3962 71.9558 19.6658 74.8349 24.4313 76.8514C29.3693 78.9433 34.5984 80.0001 40 80.0001C45.4016 80.0001 50.6307 78.9433 55.5687 76.8514C60.3342 74.8349 64.6038 71.9558 68.2803 68.2788C71.9461 64.6125 74.8356 60.3316 76.8517 55.5655C78.9434 50.6268 80 45.397 80 39.9947C80 34.5923 78.9434 29.3625 76.8517 24.4238Z" fill="#7577B8"/>
<path d="M33.283 12.1526V59.5121H46.7386V12.1526C48.938 12.681 51.062 13.4681 53.0674 14.5033H70.8248C70.027 13.5436 69.1752 12.6055 68.2911 11.7213C64.6253 8.05499 60.345 5.16512 55.5795 3.14867C50.6415 1.05675 45.4124 0 40.0108 0C34.6092 0 29.3801 1.05675 24.4421 3.14867C19.6766 5.16512 15.407 8.04421 11.7305 11.7213C10.8356 12.6163 9.99462 13.5436 9.19678 14.5033H26.9542C28.9596 13.4681 31.0836 12.681 33.283 12.1526Z" fill="#7577B8"/>
</svg>
