<svg width="inherit" height="inherit" viewBox="0 0 70 70" fill="none" xmlns="http://www.w3.org/2000/svg">
<path d="M35 70C15.6695 70 0 54.3305 0 35C0 15.6695 15.6695 0 35 0C54.3305 0 70 15.6695 70 35C70 54.3305 54.3305 70 35 70ZM35 63C42.4261 63 49.548 60.05 54.799 54.799C60.05 49.548 63 42.4261 63 35C63 27.5739 60.05 20.452 54.799 15.201C49.548 9.94999 42.4261 7 35 7C27.5739 7 20.452 9.94999 15.201 15.201C9.94999 20.452 7 27.5739 7 35C7 42.4261 9.94999 49.548 15.201 54.799C20.452 60.05 27.5739 63 35 63ZM22.75 42H42C42.4641 42 42.9092 41.8156 43.2374 41.4874C43.5656 41.1592 43.75 40.7141 43.75 40.25C43.75 39.7859 43.5656 39.3408 43.2374 39.0126C42.9092 38.6844 42.4641 38.5 42 38.5H28C25.6794 38.5 23.4538 37.5781 21.8128 35.9372C20.1719 34.2962 19.25 32.0706 19.25 29.75C19.25 27.4294 20.1719 25.2038 21.8128 23.5628C23.4538 21.9219 25.6794 21 28 21H31.5V14H38.5V21H47.25V28H28C27.5359 28 27.0907 28.1844 26.7626 28.5126C26.4344 28.8407 26.25 29.2859 26.25 29.75C26.25 30.2141 26.4344 30.6593 26.7626 30.9874C27.0907 31.3156 27.5359 31.5 28 31.5H42C44.3206 31.5 46.5462 32.4219 48.1872 34.0628C49.8281 35.7038 50.75 37.9294 50.75 40.25C50.75 42.5706 49.8281 44.7962 48.1872 46.4372C46.5462 48.0781 44.3206 49 42 49H38.5V56H31.5V49H22.75V42Z" fill="#7577B8"/>
</svg>
