<?xml version="1.0" encoding="utf-8"?>
<!-- Generator: Adobe Illustrator 27.4.1, SVG Export Plug-In . SVG Version: 6.00 Build 0)  -->
<svg version="1.1" id="Layer_2_00000173151528380251472830000010777304863877193386_"
	 xmlns="http://www.w3.org/2000/svg" xmlns:xlink="http://www.w3.org/1999/xlink" x="0px" y="0px" viewBox="0 0 300 300"
	 style="enable-background:new 0 0 300 300;" xml:space="preserve">
<style type="text/css">
	.st0{fill:url(#SVGID_1_);}
	.st1{fill:#FFFFFF;}
</style>
<g>
	<linearGradient id="SVGID_1_" gradientUnits="userSpaceOnUse" x1="199.9695" y1="55.1762" x2="90.4728" y2="262.9609">
		<stop  offset="0" style="stop-color:#1F94D2"/>
		<stop  offset="0.4898" style="stop-color:#6561AB"/>
		<stop  offset="1" style="stop-color:#2B3594"/>
	</linearGradient>
	<circle class="st0" cx="150" cy="150" r="150"/>
	<g id="Layer_1-2">
		<g>
			<path class="st1" d="M253.5,106.3c-1.2-2.9-2.6-5.8-4.1-8.6h-38.3c12.5,14.6,19.3,32.9,19.3,52.3c0,21.5-8.4,41.7-23.5,56.9
				c-15.2,15.2-35.4,23.5-56.9,23.5s-41.7-8.4-56.9-23.5c-15.2-15.2-23.5-35.4-23.5-56.9c0-19.4,6.8-37.7,19.3-52.3H50.6
				c-1.5,2.8-2.8,5.6-4.1,8.6c-5.9,13.9-8.8,28.6-8.8,43.7s3,29.9,8.8,43.7c5.7,13.4,13.8,25.4,24.1,35.7s22.3,18.4,35.7,24.1
				c13.9,5.9,28.6,8.8,43.7,8.8s29.9-3,43.7-8.8c13.4-5.7,25.4-13.8,35.7-24.1s18.4-22.3,24.1-35.7c5.9-13.9,8.8-28.6,8.8-43.7
				S259.3,120.1,253.5,106.3L253.5,106.3z"/>
			<path class="st1" d="M131.1,71.8v133h37.8v-133c6.2,1.5,12.1,3.7,17.8,6.6h49.9c-2.2-2.7-4.6-5.3-7.1-7.8
				c-10.3-10.3-22.3-18.4-35.7-24.1c-13.9-5.9-28.6-8.8-43.7-8.8s-29.9,3-43.7,8.8c-13.4,5.7-25.4,13.8-35.7,24.1
				c-2.5,2.5-4.9,5.1-7.1,7.8h49.9C119,75.5,124.9,73.3,131.1,71.8L131.1,71.8z"/>
		</g>
	</g>
</g>
</svg>
