<?xml version="1.0" encoding="UTF-8"?>
<svg id="Layer_1" xmlns="http://www.w3.org/2000/svg" version="1.1" viewBox="0 0 1000 1000">
  <!-- Generator: Adobe Illustrator 29.8.1, SVG Export Plug-In . SVG Version: 2.1.1 Build 2)  -->
  <defs>
    <style>
      .st0 {
        fill: #41b4fa;
      }

      .st1 {
        fill: #6a44f8;
      }

      .st2 {
        fill: #30eec9;
      }
    </style>
  </defs>
  <path class="st1" d="M620.54,873.96c.06-15.37,4.63-45.9-8.35-54.27l187.71-109.73c7.3-5.75,10.92-9.88,7.57-19.81-3.5-10.39-106.19-61.52-121.33-73-6.8-.63-25.33,22.43-32.38,28.07-22,17.6-61.52,36.08-89.58,38.79-12.97,1.25-39.33,1.37-52.18,0-41.08-4.38-93.99-36.21-118.98-68.88-6.97-9.11-23.2-35.75-27.14-45.92-14.71-38.01-15.52-99.95,0-137.76,2.42-5.9,22.69-40.33,27.14-45.92,27.35-34.38,75.5-60.81,118.98-66.79,19.56-2.69,32.73-2.6,52.18,0,39.16,5.24,72.2,21.75,101.29,47.95,4.8,4.32,14.44,18.13,19.08,18.48,15.21-10.66,120.51-64.25,123.44-74.19,1.95-6.6-.44-14.2-5.95-18.25l-189.86-109.68c1.56-1.05,7.85-9.17,8.31-11.53,2-10.31.12-32.91.04-44.83l211.47,121.46c36.69,24.07,41.4,78.16,8.68,108.09-13.31,12.18-122.02,74.81-139.17,80.01-46.38,14.04-58.91-22.29-89.53-43.23-76.55-52.34-183.63-8.66-201.34,82.15-21.39,109.68,95.39,194.06,193.02,138.75,33.27-18.85,43.94-55.86,88.66-50.73,10.52,1.21,20.49,7.2,29.81,11.92,24.64,12.5,110.31,59.92,124.91,77.57,31.91,38.56,14.83,81.38-23.39,106.08-54.19,35.03-117.95,68.63-174.58,100.95-9.16,5.23-18.31,11.19-28.54,14.25Z"/>
  <path class="st1" d="M457.73,126.69c-.1,12.23-2.07,36.56-.03,46.99.52,2.67,6.24,7.95,8.38,9.37l-166.99,96.02c-.29-3.7.12-9.17-2.62-12.02-2.95-3.07-30.29-16.43-37.01-20.47-2.32-1.39-3.6-4.73-4.21-5.09l202.47-114.8Z"/>
  <path class="st1" d="M466.08,817.6c-.19.13.27,2.56-.71,3.39-1.74,1.47-4.77,2.52-5.67,3.73-3.68,4.98-2.06,41.86-1.97,51.33l-200.38-114.8c.61-.35,1.93-3.71,4.2-5.1,7.04-4.3,35.28-17.94,37.14-23.56.97-2.93.2-5.97.4-8.91l166.99,93.93Z"/>
  <path class="st2" d="M393.02,385.52c-4.45,5.59-24.71,40.02-27.14,45.92l-93.93-52.18c3.23-9.4,21.27-9.96,25.6-19.28,4.3-9.25-.48-16.25-.26-23.6.05-1.73,1.79-2.78,1.79-3.05l93.93,52.18Z"/>
  <path class="st0" d="M393.02,615.13l-93.93,54.27c-.13-6.29,1.39-23.06-1.06-27.12-1.74-2.9-19.89-11.79-24.59-14.62-1.85-1.11-1.3-4.07-1.49-4.18l93.93-54.27c3.94,10.18,20.17,36.82,27.14,45.92Z"/>
  <g>
    <path class="st2" d="M226.03,600.52c9.6,4.07,37.84,18.01,45.92,22.96.19.12-.37,3.07,1.49,4.18,4.71,2.82,22.85,11.72,24.59,14.62,2.45,4.07.93,20.83,1.06,27.12.35,17.13,1.17,37.43,0,54.27-.21,2.94.57,5.98-.4,8.91-1.87,5.62-30.11,19.26-37.14,23.56-2.26,1.38-3.59,4.75-4.2,5.1-11.12,6.46-25.38,11.21-36.1,19.32l-6.22,1.23-77.71-45.59-1.07-94.56c12.24-7.79,25-15.14,37.61-22.35,6.89-3.94,40.18-23.18,44.42-22.6,2.42.33,5.3,2.77,7.76,3.81Z"/>
    <path class="st0" d="M255.26,241.49c.61.35,1.89,3.7,4.21,5.09,6.72,4.04,34.06,17.4,37.01,20.47,2.73,2.84,2.33,8.32,2.62,12.02,1.29,16.55.39,37.36,0,54.27,0,.27-1.74,1.32-1.79,3.05-.23,7.35,4.55,14.35.26,23.6-4.33,9.31-22.37,9.88-25.6,19.28-8.99-.31-35.74,20.05-45.92,25.05-3.3,1.62-6.46,4.6-10.45,3.3-12.64-8.69-28.95-14.7-41.73-22.09-5.55-3.21-36.35-21.68-37.17-24.41l.63-92.5,77.77-45.56,6.83.52c9.64,7.85,23.17,12,33.34,17.92Z"/>
    <path class="st1" d="M226.03,404.31v196.21c-2.46-1.04-5.34-3.48-7.76-3.81-4.24-.58-37.53,18.65-44.42,22.6v-233.78c12.78,7.39,29.09,13.4,41.73,22.09,3.99,1.3,7.15-1.68,10.45-3.3Z"/>
  </g>
  <g>
    <path class="st0" d="M564.18,792.55c14.1,7.61,35.03,18.76,48.01,27.14s8.41,38.9,8.35,54.27c-.04,9.87,1.92,38.54-1.95,45.02l-80.14,46.45-79.72-45.51c-1.99-14.48-.88-29.31-1.01-43.87-.08-9.47-1.71-46.35,1.97-51.33.89-1.21,3.93-2.26,5.67-3.73.98-.83.52-3.26.71-3.39,8.9-6.09,34.41-18.85,45.92-25.05,8.33-4.48,17.65-8.25,26.08-12.75,2.6,0,21.8,10.42,26.11,12.75Z"/>
    <path class="st2" d="M564.18,684.01v108.54c-4.31-2.32-23.5-12.74-26.11-12.75-8.43,4.5-17.75,8.27-26.08,12.75v-108.54c12.86,1.37,39.22,1.25,52.18,0Z"/>
    <g>
      <path class="st2" d="M620.54,126.69c.08,11.92,1.96,34.53-.04,44.83-.46,2.35-6.75,10.47-8.31,11.53-10.1,6.81-36.18,20.77-48.01,27.14-3.17,1.71-24.31,12.09-25.73,12.02-5.55-.26-15.05-7.97-20.43-10.82-2.24-1.18-5.2-.75-6.02-1.2-12.34-6.78-34.57-19.57-45.92-27.14-2.14-1.42-7.85-6.7-8.38-9.37-2.04-10.43-.07-34.76.03-46.99.07-8.98-1.79-39.97,1.92-45.04,26.56-15.07,52.02-33.31,80.39-44.71l79.45,45.93c2.05,14.45.96,29.29,1.06,43.82Z"/>
      <path class="st0" d="M564.18,210.18v108.54c-19.46-2.6-32.62-2.69-52.18,0v-108.54c.82.45,3.79.02,6.02,1.2,5.38,2.85,14.89,10.56,20.43,10.82,1.42.07,22.55-10.31,25.73-12.02Z"/>
    </g>
  </g>
</svg>