<svg width="515" height="184" viewBox="0 0 515 184" fill="none" xmlns="http://www.w3.org/2000/svg">
<path d="M109.852 18.5881V15.5455H124.188V18.5881H118.844V33H115.196V18.5881H109.852ZM131.456 33.2557C130.133 33.2557 128.988 32.9744 128.022 32.4119C127.062 31.8437 126.32 31.054 125.797 30.0426C125.275 29.0256 125.013 27.8466 125.013 26.5057C125.013 25.1534 125.275 23.9716 125.797 22.9602C126.32 21.9432 127.062 21.1534 128.022 20.5909C128.988 20.0227 130.133 19.7386 131.456 19.7386C132.78 19.7386 133.922 20.0227 134.883 20.5909C135.848 21.1534 136.593 21.9432 137.116 22.9602C137.638 23.9716 137.9 25.1534 137.9 26.5057C137.9 27.8466 137.638 29.0256 137.116 30.0426C136.593 31.054 135.848 31.8437 134.883 32.4119C133.922 32.9744 132.78 33.2557 131.456 33.2557ZM131.473 30.4432C132.076 30.4432 132.579 30.2727 132.982 29.9318C133.385 29.5852 133.689 29.1136 133.894 28.517C134.104 27.9205 134.209 27.2415 134.209 26.4801C134.209 25.7188 134.104 25.0398 133.894 24.4432C133.689 23.8466 133.385 23.375 132.982 23.0284C132.579 22.6818 132.076 22.5085 131.473 22.5085C130.866 22.5085 130.354 22.6818 129.939 23.0284C129.53 23.375 129.221 23.8466 129.01 24.4432C128.806 25.0398 128.704 25.7188 128.704 26.4801C128.704 27.2415 128.806 27.9205 129.01 28.517C129.221 29.1136 129.53 29.5852 129.939 29.9318C130.354 30.2727 130.866 30.4432 131.473 30.4432ZM148.183 19.9091V22.6364H140.3V19.9091H148.183ZM142.09 16.7727H145.72V28.9773C145.72 29.3125 145.772 29.5739 145.874 29.7614C145.976 29.9432 146.118 30.071 146.3 30.1449C146.487 30.2187 146.703 30.2557 146.948 30.2557C147.118 30.2557 147.289 30.2415 147.459 30.2131C147.63 30.179 147.76 30.1534 147.851 30.1364L148.422 32.8381C148.24 32.8949 147.985 32.9602 147.655 33.0341C147.326 33.1136 146.925 33.1619 146.453 33.179C145.578 33.2131 144.811 33.0966 144.152 32.8295C143.499 32.5625 142.99 32.1477 142.627 31.5852C142.263 31.0227 142.084 30.3125 142.09 29.4545V16.7727ZM155.242 33.2472C154.406 33.2472 153.662 33.1023 153.009 32.8125C152.355 32.517 151.838 32.0824 151.457 31.5085C151.082 30.929 150.895 30.2074 150.895 29.3438C150.895 28.6165 151.028 28.0057 151.295 27.5114C151.563 27.017 151.926 26.6193 152.386 26.3182C152.847 26.017 153.369 25.7898 153.955 25.6364C154.545 25.483 155.165 25.375 155.813 25.3125C156.574 25.233 157.188 25.1591 157.653 25.0909C158.119 25.017 158.457 24.9091 158.668 24.767C158.878 24.625 158.983 24.4148 158.983 24.1364V24.0852C158.983 23.5455 158.813 23.1278 158.472 22.8324C158.136 22.5369 157.659 22.3892 157.04 22.3892C156.386 22.3892 155.867 22.5341 155.48 22.8239C155.094 23.108 154.838 23.4659 154.713 23.8977L151.355 23.625C151.526 22.8295 151.861 22.142 152.361 21.5625C152.861 20.9773 153.506 20.5284 154.295 20.2159C155.091 19.8977 156.011 19.7386 157.057 19.7386C157.784 19.7386 158.48 19.8239 159.145 19.9943C159.815 20.1648 160.409 20.429 160.926 20.7869C161.449 21.1449 161.861 21.6051 162.162 22.1676C162.463 22.7244 162.614 23.392 162.614 24.1705V33H159.17V31.1847H159.068C158.858 31.5938 158.577 31.9545 158.224 32.267C157.872 32.5739 157.449 32.8153 156.955 32.9915C156.46 33.1619 155.889 33.2472 155.242 33.2472ZM156.281 30.7415C156.815 30.7415 157.287 30.6364 157.696 30.4261C158.105 30.2102 158.426 29.9205 158.659 29.5568C158.892 29.1932 159.009 28.7812 159.009 28.321V26.9318C158.895 27.0057 158.739 27.0739 158.54 27.1364C158.347 27.1932 158.128 27.2472 157.884 27.2983C157.639 27.3437 157.395 27.3864 157.151 27.4261C156.906 27.4602 156.685 27.4915 156.486 27.5199C156.06 27.5824 155.688 27.6818 155.369 27.8182C155.051 27.9545 154.804 28.1392 154.628 28.3722C154.452 28.5994 154.364 28.8835 154.364 29.2244C154.364 29.7188 154.543 30.0966 154.901 30.358C155.264 30.6136 155.724 30.7415 156.281 30.7415ZM170.021 15.5455V33H166.39V15.5455H170.021ZM187.444 19.9091V22.6364H179.364V19.9091H187.444ZM181.214 33V18.9631C181.214 18.0142 181.398 17.2273 181.768 16.6023C182.143 15.9773 182.654 15.5085 183.302 15.196C183.95 14.8835 184.685 14.7273 185.509 14.7273C186.066 14.7273 186.575 14.7699 187.035 14.8551C187.501 14.9403 187.847 15.017 188.075 15.0852L187.427 17.8125C187.285 17.767 187.109 17.7244 186.898 17.6847C186.694 17.6449 186.484 17.625 186.268 17.625C185.734 17.625 185.362 17.75 185.151 18C184.941 18.2443 184.836 18.5881 184.836 19.0312V33H181.214ZM190.622 33V19.9091H194.253V33H190.622ZM192.446 18.2216C191.906 18.2216 191.443 18.0426 191.057 17.6847C190.676 17.321 190.486 16.8864 190.486 16.3807C190.486 15.8807 190.676 15.4517 191.057 15.0938C191.443 14.7301 191.906 14.5483 192.446 14.5483C192.986 14.5483 193.446 14.7301 193.827 15.0938C194.213 15.4517 194.406 15.8807 194.406 16.3807C194.406 16.8864 194.213 17.321 193.827 17.6847C193.446 18.0426 192.986 18.2216 192.446 18.2216ZM201.752 25.4318V33H198.121V19.9091H201.581V22.2188H201.735C202.024 21.4574 202.51 20.8551 203.192 20.4119C203.874 19.9631 204.701 19.7386 205.672 19.7386C206.581 19.7386 207.374 19.9375 208.05 20.3352C208.726 20.733 209.252 21.3011 209.627 22.0398C210.002 22.7727 210.189 23.6477 210.189 24.6648V33H206.559V25.3125C206.564 24.5114 206.36 23.8864 205.945 23.4375C205.53 22.983 204.959 22.7557 204.232 22.7557C203.743 22.7557 203.311 22.8608 202.936 23.071C202.567 23.2812 202.277 23.5881 202.067 23.9915C201.863 24.3892 201.757 24.8693 201.752 25.4318ZM217.744 33.2472C216.908 33.2472 216.164 33.1023 215.511 32.8125C214.857 32.517 214.34 32.0824 213.96 31.5085C213.585 30.929 213.397 30.2074 213.397 29.3438C213.397 28.6165 213.531 28.0057 213.798 27.5114C214.065 27.017 214.428 26.6193 214.889 26.3182C215.349 26.017 215.872 25.7898 216.457 25.6364C217.048 25.483 217.667 25.375 218.315 25.3125C219.076 25.233 219.69 25.1591 220.156 25.0909C220.622 25.017 220.96 24.9091 221.17 24.767C221.38 24.625 221.485 24.4148 221.485 24.1364V24.0852C221.485 23.5455 221.315 23.1278 220.974 22.8324C220.639 22.5369 220.161 22.3892 219.542 22.3892C218.889 22.3892 218.369 22.5341 217.982 22.8239C217.596 23.108 217.34 23.4659 217.215 23.8977L213.857 23.625C214.028 22.8295 214.363 22.142 214.863 21.5625C215.363 20.9773 216.008 20.5284 216.798 20.2159C217.593 19.8977 218.514 19.7386 219.559 19.7386C220.286 19.7386 220.982 19.8239 221.647 19.9943C222.318 20.1648 222.911 20.429 223.428 20.7869C223.951 21.1449 224.363 21.6051 224.664 22.1676C224.965 22.7244 225.116 23.392 225.116 24.1705V33H221.673V31.1847H221.57C221.36 31.5938 221.079 31.9545 220.727 32.267C220.374 32.5739 219.951 32.8153 219.457 32.9915C218.962 33.1619 218.391 33.2472 217.744 33.2472ZM218.783 30.7415C219.318 30.7415 219.789 30.6364 220.198 30.4261C220.607 30.2102 220.928 29.9205 221.161 29.5568C221.394 29.1932 221.511 28.7812 221.511 28.321V26.9318C221.397 27.0057 221.241 27.0739 221.042 27.1364C220.849 27.1932 220.63 27.2472 220.386 27.2983C220.141 27.3437 219.897 27.3864 219.653 27.4261C219.408 27.4602 219.187 27.4915 218.988 27.5199C218.562 27.5824 218.19 27.6818 217.872 27.8182C217.553 27.9545 217.306 28.1392 217.13 28.3722C216.954 28.5994 216.866 28.8835 216.866 29.2244C216.866 29.7188 217.045 30.0966 217.403 30.358C217.766 30.6136 218.227 30.7415 218.783 30.7415ZM232.523 25.4318V33H228.893V19.9091H232.353V22.2188H232.506C232.796 21.4574 233.282 20.8551 233.964 20.4119C234.645 19.9631 235.472 19.7386 236.444 19.7386C237.353 19.7386 238.145 19.9375 238.822 20.3352C239.498 20.733 240.023 21.3011 240.398 22.0398C240.773 22.7727 240.961 23.6477 240.961 24.6648V33H237.33V25.3125C237.336 24.5114 237.131 23.8864 236.716 23.4375C236.302 22.983 235.731 22.7557 235.003 22.7557C234.515 22.7557 234.083 22.8608 233.708 23.071C233.339 23.2812 233.049 23.5881 232.839 23.9915C232.634 24.3892 232.529 24.8693 232.523 25.4318ZM250.697 33.2557C249.356 33.2557 248.203 32.9716 247.237 32.4034C246.277 31.8295 245.538 31.0341 245.021 30.017C244.51 29 244.254 27.8295 244.254 26.5057C244.254 25.1648 244.512 23.9886 245.029 22.9773C245.552 21.9602 246.294 21.1676 247.254 20.5994C248.214 20.0256 249.356 19.7386 250.68 19.7386C251.822 19.7386 252.822 19.946 253.68 20.3608C254.538 20.7756 255.217 21.358 255.717 22.108C256.217 22.858 256.493 23.7386 256.544 24.75H253.118C253.021 24.0966 252.765 23.571 252.35 23.1733C251.941 22.7699 251.404 22.5682 250.74 22.5682C250.177 22.5682 249.686 22.7216 249.265 23.0284C248.85 23.3295 248.527 23.7699 248.294 24.3494C248.061 24.929 247.944 25.6307 247.944 26.4545C247.944 27.2898 248.058 28 248.285 28.5852C248.518 29.1705 248.845 29.6165 249.265 29.9233C249.686 30.2301 250.177 30.3835 250.74 30.3835C251.154 30.3835 251.527 30.2983 251.856 30.1278C252.191 29.9574 252.467 29.7102 252.683 29.3864C252.904 29.0568 253.049 28.6619 253.118 28.2017H256.544C256.487 29.2017 256.214 30.0824 255.725 30.8438C255.243 31.5994 254.575 32.1903 253.723 32.6165C252.87 33.0426 251.862 33.2557 250.697 33.2557ZM259.828 33V19.9091H263.459V33H259.828ZM261.652 18.2216C261.112 18.2216 260.649 18.0426 260.263 17.6847C259.882 17.321 259.692 16.8864 259.692 16.3807C259.692 15.8807 259.882 15.4517 260.263 15.0938C260.649 14.7301 261.112 14.5483 261.652 14.5483C262.192 14.5483 262.652 14.7301 263.033 15.0938C263.419 15.4517 263.612 15.8807 263.612 16.3807C263.612 16.8864 263.419 17.321 263.033 17.6847C262.652 18.0426 262.192 18.2216 261.652 18.2216ZM271.06 33.2472C270.225 33.2472 269.481 33.1023 268.827 32.8125C268.174 32.517 267.657 32.0824 267.276 31.5085C266.901 30.929 266.714 30.2074 266.714 29.3438C266.714 28.6165 266.847 28.0057 267.114 27.5114C267.381 27.017 267.745 26.6193 268.205 26.3182C268.665 26.017 269.188 25.7898 269.773 25.6364C270.364 25.483 270.984 25.375 271.631 25.3125C272.393 25.233 273.006 25.1591 273.472 25.0909C273.938 25.017 274.276 24.9091 274.486 24.767C274.697 24.625 274.802 24.4148 274.802 24.1364V24.0852C274.802 23.5455 274.631 23.1278 274.29 22.8324C273.955 22.5369 273.478 22.3892 272.859 22.3892C272.205 22.3892 271.685 22.5341 271.299 22.8239C270.913 23.108 270.657 23.4659 270.532 23.8977L267.174 23.625C267.344 22.8295 267.68 22.142 268.18 21.5625C268.68 20.9773 269.324 20.5284 270.114 20.2159C270.91 19.8977 271.83 19.7386 272.876 19.7386C273.603 19.7386 274.299 19.8239 274.964 19.9943C275.634 20.1648 276.228 20.429 276.745 20.7869C277.268 21.1449 277.68 21.6051 277.981 22.1676C278.282 22.7244 278.432 23.392 278.432 24.1705V33H274.989V31.1847H274.887C274.677 31.5938 274.395 31.9545 274.043 32.267C273.691 32.5739 273.268 32.8153 272.773 32.9915C272.279 33.1619 271.708 33.2472 271.06 33.2472ZM272.1 30.7415C272.634 30.7415 273.106 30.6364 273.515 30.4261C273.924 30.2102 274.245 29.9205 274.478 29.5568C274.711 29.1932 274.827 28.7812 274.827 28.321V26.9318C274.714 27.0057 274.557 27.0739 274.359 27.1364C274.165 27.1932 273.947 27.2472 273.702 27.2983C273.458 27.3437 273.214 27.3864 272.969 27.4261C272.725 27.4602 272.503 27.4915 272.305 27.5199C271.878 27.5824 271.506 27.6818 271.188 27.8182C270.87 27.9545 270.623 28.1392 270.447 28.3722C270.27 28.5994 270.182 28.8835 270.182 29.2244C270.182 29.7188 270.361 30.0966 270.719 30.358C271.083 30.6136 271.543 30.7415 272.1 30.7415ZM285.84 15.5455V33H282.209V15.5455H285.84ZM299.956 33.2472C299.121 33.2472 298.376 33.1023 297.723 32.8125C297.07 32.517 296.552 32.0824 296.172 31.5085C295.797 30.929 295.609 30.2074 295.609 29.3438C295.609 28.6165 295.743 28.0057 296.01 27.5114C296.277 27.017 296.641 26.6193 297.101 26.3182C297.561 26.017 298.084 25.7898 298.669 25.6364C299.26 25.483 299.879 25.375 300.527 25.3125C301.288 25.233 301.902 25.1591 302.368 25.0909C302.834 25.017 303.172 24.9091 303.382 24.767C303.592 24.625 303.697 24.4148 303.697 24.1364V24.0852C303.697 23.5455 303.527 23.1278 303.186 22.8324C302.851 22.5369 302.373 22.3892 301.754 22.3892C301.101 22.3892 300.581 22.5341 300.195 22.8239C299.808 23.108 299.552 23.4659 299.427 23.8977L296.07 23.625C296.24 22.8295 296.575 22.142 297.075 21.5625C297.575 20.9773 298.22 20.5284 299.01 20.2159C299.805 19.8977 300.726 19.7386 301.771 19.7386C302.498 19.7386 303.195 19.8239 303.859 19.9943C304.53 20.1648 305.123 20.429 305.641 20.7869C306.163 21.1449 306.575 21.6051 306.876 22.1676C307.177 22.7244 307.328 23.392 307.328 24.1705V33H303.885V31.1847H303.783C303.572 31.5938 303.291 31.9545 302.939 32.267C302.587 32.5739 302.163 32.8153 301.669 32.9915C301.175 33.1619 300.604 33.2472 299.956 33.2472ZM300.996 30.7415C301.53 30.7415 302.001 30.6364 302.41 30.4261C302.82 30.2102 303.141 29.9205 303.373 29.5568C303.606 29.1932 303.723 28.7812 303.723 28.321V26.9318C303.609 27.0057 303.453 27.0739 303.254 27.1364C303.061 27.1932 302.842 27.2472 302.598 27.2983C302.354 27.3437 302.109 27.3864 301.865 27.4261C301.621 27.4602 301.399 27.4915 301.2 27.5199C300.774 27.5824 300.402 27.6818 300.084 27.8182C299.766 27.9545 299.518 28.1392 299.342 28.3722C299.166 28.5994 299.078 28.8835 299.078 29.2244C299.078 29.7188 299.257 30.0966 299.615 30.358C299.979 30.6136 300.439 30.7415 300.996 30.7415ZM311.105 33V19.9091H314.735V33H311.105ZM312.929 18.2216C312.389 18.2216 311.926 18.0426 311.539 17.6847C311.159 17.321 310.968 16.8864 310.968 16.3807C310.968 15.8807 311.159 15.4517 311.539 15.0938C311.926 14.7301 312.389 14.5483 312.929 14.5483C313.468 14.5483 313.929 14.7301 314.309 15.0938C314.696 15.4517 314.889 15.8807 314.889 16.3807C314.889 16.8864 314.696 17.321 314.309 17.6847C313.929 18.0426 313.468 18.2216 312.929 18.2216ZM323.428 33.2131C322.433 33.2131 321.533 32.9574 320.726 32.446C319.925 31.929 319.289 31.1705 318.817 30.1705C318.351 29.1648 318.118 27.9318 318.118 26.4716C318.118 24.9716 318.36 23.7244 318.842 22.7301C319.325 21.7301 319.967 20.983 320.769 20.4886C321.575 19.9886 322.459 19.7386 323.419 19.7386C324.152 19.7386 324.763 19.8636 325.252 20.1136C325.746 20.358 326.144 20.6648 326.445 21.0341C326.752 21.3977 326.985 21.7557 327.144 22.108H327.254V15.5455H330.877V33H327.297V30.9034H327.144C326.973 31.267 326.732 31.6278 326.419 31.9858C326.112 32.3381 325.712 32.6307 325.217 32.8636C324.729 33.0966 324.132 33.2131 323.428 33.2131ZM324.578 30.3239C325.164 30.3239 325.658 30.1648 326.061 29.8466C326.47 29.5227 326.783 29.071 326.999 28.4915C327.22 27.9119 327.331 27.233 327.331 26.4545C327.331 25.6761 327.223 25 327.007 24.4261C326.791 23.8523 326.479 23.4091 326.07 23.0966C325.661 22.7841 325.164 22.6278 324.578 22.6278C323.982 22.6278 323.479 22.7898 323.07 23.1136C322.661 23.4375 322.351 23.8864 322.141 24.4602C321.931 25.0341 321.825 25.6989 321.825 26.4545C321.825 27.2159 321.931 27.8892 322.141 28.4744C322.357 29.054 322.666 29.5085 323.07 29.8381C323.479 30.1619 323.982 30.3239 324.578 30.3239ZM345.069 33.2472C344.234 33.2472 343.49 33.1023 342.836 32.8125C342.183 32.517 341.666 32.0824 341.285 31.5085C340.91 30.929 340.723 30.2074 340.723 29.3438C340.723 28.6165 340.856 28.0057 341.123 27.5114C341.39 27.017 341.754 26.6193 342.214 26.3182C342.674 26.017 343.197 25.7898 343.782 25.6364C344.373 25.483 344.993 25.375 345.64 25.3125C346.402 25.233 347.015 25.1591 347.481 25.0909C347.947 25.017 348.285 24.9091 348.495 24.767C348.706 24.625 348.811 24.4148 348.811 24.1364V24.0852C348.811 23.5455 348.64 23.1278 348.299 22.8324C347.964 22.5369 347.487 22.3892 346.868 22.3892C346.214 22.3892 345.694 22.5341 345.308 22.8239C344.922 23.108 344.666 23.4659 344.541 23.8977L341.183 23.625C341.353 22.8295 341.689 22.142 342.189 21.5625C342.689 20.9773 343.334 20.5284 344.123 20.2159C344.919 19.8977 345.839 19.7386 346.885 19.7386C347.612 19.7386 348.308 19.8239 348.973 19.9943C349.643 20.1648 350.237 20.429 350.754 20.7869C351.277 21.1449 351.689 21.6051 351.99 22.1676C352.291 22.7244 352.441 23.392 352.441 24.1705V33H348.998V31.1847H348.896C348.686 31.5938 348.405 31.9545 348.052 32.267C347.7 32.5739 347.277 32.8153 346.782 32.9915C346.288 33.1619 345.717 33.2472 345.069 33.2472ZM346.109 30.7415C346.643 30.7415 347.115 30.6364 347.524 30.4261C347.933 30.2102 348.254 29.9205 348.487 29.5568C348.72 29.1932 348.836 28.7812 348.836 28.321V26.9318C348.723 27.0057 348.566 27.0739 348.368 27.1364C348.174 27.1932 347.956 27.2472 347.711 27.2983C347.467 27.3437 347.223 27.3864 346.978 27.4261C346.734 27.4602 346.512 27.4915 346.314 27.5199C345.887 27.5824 345.515 27.6818 345.197 27.8182C344.879 27.9545 344.632 28.1392 344.456 28.3722C344.28 28.5994 344.191 28.8835 344.191 29.2244C344.191 29.7188 344.37 30.0966 344.728 30.358C345.092 30.6136 345.552 30.7415 346.109 30.7415ZM358.801 33L355.238 19.9091H358.911L360.94 28.7045H361.059L363.173 19.9091H366.778L368.926 28.6534H369.036L371.031 19.9091H374.696L371.142 33H367.298L365.048 24.767H364.886L362.636 33H358.801ZM381.325 33.2472C380.49 33.2472 379.746 33.1023 379.092 32.8125C378.439 32.517 377.922 32.0824 377.541 31.5085C377.166 30.929 376.979 30.2074 376.979 29.3438C376.979 28.6165 377.112 28.0057 377.379 27.5114C377.646 27.017 378.01 26.6193 378.47 26.3182C378.93 26.017 379.453 25.7898 380.038 25.6364C380.629 25.483 381.249 25.375 381.896 25.3125C382.658 25.233 383.271 25.1591 383.737 25.0909C384.203 25.017 384.541 24.9091 384.751 24.767C384.962 24.625 385.067 24.4148 385.067 24.1364V24.0852C385.067 23.5455 384.896 23.1278 384.555 22.8324C384.22 22.5369 383.743 22.3892 383.124 22.3892C382.47 22.3892 381.95 22.5341 381.564 22.8239C381.178 23.108 380.922 23.4659 380.797 23.8977L377.439 23.625C377.609 22.8295 377.945 22.142 378.445 21.5625C378.945 20.9773 379.589 20.5284 380.379 20.2159C381.175 19.8977 382.095 19.7386 383.141 19.7386C383.868 19.7386 384.564 19.8239 385.229 19.9943C385.899 20.1648 386.493 20.429 387.01 20.7869C387.533 21.1449 387.945 21.6051 388.246 22.1676C388.547 22.7244 388.697 23.392 388.697 24.1705V33H385.254V31.1847H385.152C384.942 31.5938 384.66 31.9545 384.308 32.267C383.956 32.5739 383.533 32.8153 383.038 32.9915C382.544 33.1619 381.973 33.2472 381.325 33.2472ZM382.365 30.7415C382.899 30.7415 383.371 30.6364 383.78 30.4261C384.189 30.2102 384.51 29.9205 384.743 29.5568C384.976 29.1932 385.092 28.7812 385.092 28.321V26.9318C384.979 27.0057 384.822 27.0739 384.624 27.1364C384.43 27.1932 384.212 27.2472 383.967 27.2983C383.723 27.3437 383.479 27.3864 383.234 27.4261C382.99 27.4602 382.768 27.4915 382.57 27.5199C382.143 27.5824 381.771 27.6818 381.453 27.8182C381.135 27.9545 380.888 28.1392 380.712 28.3722C380.535 28.5994 380.447 28.8835 380.447 29.2244C380.447 29.7188 380.626 30.0966 380.984 30.358C381.348 30.6136 381.808 30.7415 382.365 30.7415ZM392.474 33V19.9091H395.994V22.1932H396.13C396.369 21.3807 396.77 20.767 397.332 20.3523C397.895 19.9318 398.542 19.7216 399.275 19.7216C399.457 19.7216 399.653 19.733 399.863 19.7557C400.074 19.7784 400.258 19.8097 400.417 19.8494V23.071C400.247 23.0199 400.011 22.9744 399.71 22.9347C399.409 22.8949 399.133 22.875 398.883 22.875C398.349 22.875 397.872 22.9915 397.451 23.2244C397.037 23.4517 396.707 23.7699 396.463 24.179C396.224 24.5881 396.105 25.0597 396.105 25.5938V33H392.474ZM407.469 33.2131C406.475 33.2131 405.574 32.9574 404.767 32.446C403.966 31.929 403.33 31.1705 402.858 30.1705C402.392 29.1648 402.159 27.9318 402.159 26.4716C402.159 24.9716 402.401 23.7244 402.884 22.7301C403.367 21.7301 404.009 20.983 404.81 20.4886C405.617 19.9886 406.5 19.7386 407.46 19.7386C408.193 19.7386 408.804 19.8636 409.293 20.1136C409.787 20.358 410.185 20.6648 410.486 21.0341C410.793 21.3977 411.026 21.7557 411.185 22.108H411.296V15.5455H414.918V33H411.338V30.9034H411.185C411.014 31.267 410.773 31.6278 410.46 31.9858C410.154 32.3381 409.753 32.6307 409.259 32.8636C408.77 33.0966 408.174 33.2131 407.469 33.2131ZM408.62 30.3239C409.205 30.3239 409.699 30.1648 410.103 29.8466C410.512 29.5227 410.824 29.071 411.04 28.4915C411.262 27.9119 411.372 27.233 411.372 26.4545C411.372 25.6761 411.264 25 411.049 24.4261C410.833 23.8523 410.52 23.4091 410.111 23.0966C409.702 22.7841 409.205 22.6278 408.62 22.6278C408.023 22.6278 407.52 22.7898 407.111 23.1136C406.702 23.4375 406.392 23.8864 406.182 24.4602C405.972 25.0341 405.867 25.6989 405.867 26.4545C405.867 27.2159 405.972 27.8892 406.182 28.4744C406.398 29.054 406.708 29.5085 407.111 29.8381C407.52 30.1619 408.023 30.3239 408.62 30.3239ZM424.829 33.2557C423.482 33.2557 422.323 32.983 421.352 32.4375C420.386 31.8864 419.641 31.108 419.119 30.1023C418.596 29.0909 418.335 27.8949 418.335 26.5142C418.335 25.1676 418.596 23.9858 419.119 22.9688C419.641 21.9517 420.377 21.1591 421.326 20.5909C422.281 20.0227 423.4 19.7386 424.684 19.7386C425.548 19.7386 426.352 19.8778 427.096 20.1562C427.846 20.429 428.499 20.8409 429.056 21.392C429.619 21.9432 430.056 22.6364 430.369 23.4716C430.681 24.3011 430.837 25.2727 430.837 26.3864V27.3835H419.783V25.1335H427.42C427.42 24.6108 427.306 24.1477 427.079 23.7443C426.852 23.3409 426.536 23.0256 426.133 22.7983C425.735 22.5653 425.272 22.4489 424.744 22.4489C424.192 22.4489 423.704 22.5767 423.278 22.8324C422.857 23.0824 422.528 23.4205 422.289 23.8466C422.05 24.267 421.928 24.7358 421.923 25.2528V27.392C421.923 28.0398 422.042 28.5994 422.281 29.071C422.525 29.5426 422.869 29.9062 423.312 30.1619C423.755 30.4176 424.281 30.5455 424.888 30.5455C425.292 30.5455 425.661 30.4886 425.996 30.375C426.332 30.2614 426.619 30.0909 426.857 29.8636C427.096 29.6364 427.278 29.358 427.403 29.0284L430.761 29.25C430.59 30.0568 430.241 30.7614 429.712 31.3636C429.19 31.9602 428.513 32.4261 427.684 32.7614C426.86 33.0909 425.908 33.2557 424.829 33.2557ZM438.991 33.2131C437.996 33.2131 437.096 32.9574 436.289 32.446C435.488 31.929 434.851 31.1705 434.38 30.1705C433.914 29.1648 433.681 27.9318 433.681 26.4716C433.681 24.9716 433.922 23.7244 434.405 22.7301C434.888 21.7301 435.53 20.983 436.331 20.4886C437.138 19.9886 438.022 19.7386 438.982 19.7386C439.715 19.7386 440.326 19.8636 440.814 20.1136C441.309 20.358 441.706 20.6648 442.008 21.0341C442.314 21.3977 442.547 21.7557 442.706 22.108H442.817V15.5455H446.439V33H442.86V30.9034H442.706C442.536 31.267 442.295 31.6278 441.982 31.9858C441.675 32.3381 441.275 32.6307 440.78 32.8636C440.292 33.0966 439.695 33.2131 438.991 33.2131ZM440.141 30.3239C440.726 30.3239 441.221 30.1648 441.624 29.8466C442.033 29.5227 442.346 29.071 442.562 28.4915C442.783 27.9119 442.894 27.233 442.894 26.4545C442.894 25.6761 442.786 25 442.57 24.4261C442.354 23.8523 442.042 23.4091 441.633 23.0966C441.223 22.7841 440.726 22.6278 440.141 22.6278C439.545 22.6278 439.042 22.7898 438.633 23.1136C438.223 23.4375 437.914 23.8864 437.704 24.4602C437.493 25.0341 437.388 25.6989 437.388 26.4545C437.388 27.2159 437.493 27.8892 437.704 28.4744C437.92 29.054 438.229 29.5085 438.633 29.8381C439.042 30.1619 439.545 30.3239 440.141 30.3239Z" fill="#7577B8"/>
<g clip-path="url(#clip0_799_476)">
<g filter="url(#filter0_b_799_476)">
<rect y="64" width="515" height="120" rx="8" fill="#7577B8" fill-opacity="0.5"/>
<rect x="-1" y="63" width="517" height="122" rx="9" stroke="url(#paint0_linear_799_476)" stroke-width="2"/>
</g>
<g filter="url(#filter1_d_799_476)">
<path d="M0 72C0 67.5817 3.58172 64 8 64H90V184H8C3.58172 184 0 180.418 0 176V72Z" fill="#7577B8"/>
</g>
<g filter="url(#filter2_b_799_476)">
<mask id="path-6-inside-1_799_476" fill="white">
<path d="M90 64H175V184H90V64Z"/>
</mask>
<path d="M174.5 64V184H175.5V64H174.5ZM91 184V64H89V184H91Z" fill="white" fill-opacity="0.1" mask="url(#path-6-inside-1_799_476)"/>
</g>
<path d="M67.1133 114.656C66.849 114.034 66.5586 113.424 66.2472 112.83H58.0571C60.7261 115.941 62.1835 119.858 62.1835 124.001C62.1835 128.59 60.3964 132.905 57.1517 136.152C53.9071 139.397 49.5922 141.184 45 141.184C40.4077 141.184 36.0955 139.397 32.8482 136.152C29.6036 132.908 27.8164 128.593 27.8164 124.001C27.8164 119.858 29.2739 115.941 31.9428 112.83H23.7527C23.4387 113.424 23.1509 114.034 22.8866 114.656C21.6332 117.619 21 120.761 21 124.001C21 127.24 21.6358 130.383 22.8866 133.345C24.0955 136.202 25.8251 138.769 28.0283 140.972C30.2316 143.175 32.7985 144.905 35.6559 146.114C38.6179 147.367 41.7605 148 45 148C48.2394 148 51.382 147.365 54.344 146.114C57.2014 144.905 59.7684 143.175 61.9716 140.972C64.1748 138.769 65.9044 136.202 67.1133 133.345C68.3667 130.383 68.9999 127.24 68.9999 124.001C68.9999 120.761 68.3641 117.619 67.1133 114.656Z" fill="white"/>
<path d="M40.9603 107.293V135.72H49.0379V107.293C50.3593 107.609 51.6336 108.083 52.8373 108.7H63.4949C63.016 108.122 62.5084 107.565 61.972 107.028C59.7688 104.825 57.2018 103.095 54.3444 101.887C51.3824 100.633 48.2398 100 45.0004 100C41.761 100 38.6184 100.636 35.6563 101.887C32.7989 103.095 30.232 104.825 28.0288 107.028C27.4923 107.565 26.9847 108.122 26.5059 108.7H37.1635C38.3672 108.083 39.6415 107.609 40.9629 107.293H40.9603Z" fill="white"/>
<g filter="url(#filter3_b_799_476)">
<mask id="path-10-inside-2_799_476" fill="white">
<path d="M175 64H260V184H175V64Z"/>
</mask>
<path d="M259.5 64V184H260.5V64H259.5ZM175.5 184V64H174.5V184H175.5Z" fill="white" fill-opacity="0.1" mask="url(#path-10-inside-2_799_476)"/>
</g>
<g filter="url(#filter4_b_799_476)">
<mask id="path-12-inside-3_799_476" fill="white">
<path d="M260 64H345V184H260V64Z"/>
</mask>
<path d="M344.5 64V184H345.5V64H344.5ZM260.5 184V64H259.5V184H260.5Z" fill="white" fill-opacity="0.1" mask="url(#path-12-inside-3_799_476)"/>
</g>
<g filter="url(#filter5_b_799_476)">
<mask id="path-14-inside-4_799_476" fill="white">
<path d="M345 64H430V184H345V64Z"/>
</mask>
<path d="M429.5 64V184H430.5V64H429.5ZM345.5 184V64H344.5V184H345.5Z" fill="white" fill-opacity="0.1" mask="url(#path-14-inside-4_799_476)"/>
</g>
<g filter="url(#filter6_b_799_476)">
<mask id="path-16-inside-5_799_476" fill="white">
<path d="M430 64H515V184H430V64Z"/>
</mask>
<path d="M514.5 64V184H515.5V64H514.5ZM430.5 184V64H429.5V184H430.5Z" fill="white" fill-opacity="0.1" mask="url(#path-16-inside-5_799_476)"/>
</g>
<path d="M140.844 102.364V146H131.618V111.121H131.362L121.369 117.385V109.203L132.172 102.364H140.844Z" fill="white"/>
<path d="M302.981 146.597C299.7 146.597 296.781 146.064 294.224 144.999C291.682 143.919 289.686 142.449 288.237 140.588C286.788 138.727 286.064 136.618 286.064 134.26C286.064 132.442 286.476 130.773 287.3 129.253C288.138 127.719 289.274 126.447 290.709 125.439C292.143 124.416 293.748 123.763 295.524 123.479V123.18C293.194 122.712 291.305 121.582 289.856 119.793C288.407 117.989 287.683 115.893 287.683 113.507C287.683 111.249 288.344 109.239 289.665 107.477C290.986 105.702 292.797 104.31 295.098 103.301C297.413 102.278 300.041 101.767 302.981 101.767C305.922 101.767 308.542 102.278 310.844 103.301C313.159 104.324 314.977 105.723 316.298 107.499C317.619 109.26 318.287 111.263 318.301 113.507C318.287 115.908 317.548 118.003 316.085 119.793C314.622 121.582 312.747 122.712 310.46 123.18V123.479C312.207 123.763 313.791 124.416 315.211 125.439C316.646 126.447 317.782 127.719 318.621 129.253C319.473 130.773 319.906 132.442 319.92 134.26C319.906 136.618 319.175 138.727 317.726 140.588C316.277 142.449 314.274 143.919 311.717 144.999C309.175 146.064 306.263 146.597 302.981 146.597ZM302.981 139.821C304.444 139.821 305.723 139.558 306.817 139.033C307.91 138.493 308.763 137.754 309.373 136.817C309.998 135.865 310.311 134.771 310.311 133.536C310.311 132.271 309.991 131.156 309.352 130.19C308.713 129.21 307.846 128.443 306.753 127.889C305.659 127.321 304.402 127.037 302.981 127.037C301.575 127.037 300.318 127.321 299.21 127.889C298.102 128.443 297.229 129.21 296.589 130.19C295.964 131.156 295.652 132.271 295.652 133.536C295.652 134.771 295.957 135.865 296.568 136.817C297.179 137.754 298.038 138.493 299.146 139.033C300.254 139.558 301.532 139.821 302.981 139.821ZM302.981 120.325C304.203 120.325 305.29 120.077 306.241 119.58C307.193 119.082 307.939 118.393 308.479 117.513C309.018 116.632 309.288 115.616 309.288 114.466C309.288 113.33 309.018 112.335 308.479 111.483C307.939 110.616 307.2 109.942 306.263 109.459C305.325 108.962 304.231 108.713 302.981 108.713C301.746 108.713 300.652 108.962 299.7 109.459C298.748 109.942 298.003 110.616 297.463 111.483C296.937 112.335 296.675 113.33 296.675 114.466C296.675 115.616 296.944 116.632 297.484 117.513C298.024 118.393 298.77 119.082 299.721 119.58C300.673 120.077 301.76 120.325 302.981 120.325Z" fill="white"/>
<path d="M387.638 146.597C384.627 146.597 381.942 146.043 379.585 144.935C377.241 143.827 375.38 142.3 374.002 140.354C372.624 138.408 371.907 136.178 371.85 133.663H380.799C380.898 135.354 381.609 136.724 382.93 137.776C384.251 138.827 385.82 139.352 387.638 139.352C389.087 139.352 390.366 139.033 391.474 138.393C392.596 137.74 393.469 136.838 394.094 135.688C394.734 134.523 395.053 133.187 395.053 131.682C395.053 130.148 394.727 128.798 394.073 127.634C393.434 126.469 392.546 125.56 391.41 124.906C390.273 124.253 388.974 123.919 387.511 123.905C386.232 123.905 384.989 124.168 383.782 124.693C382.589 125.219 381.658 125.936 380.991 126.845L372.788 125.375L374.854 102.364H401.531V109.906H382.461L381.332 120.837H381.587C382.354 119.757 383.512 118.862 385.06 118.152C386.609 117.442 388.342 117.087 390.259 117.087C392.887 117.087 395.231 117.705 397.29 118.94C399.35 120.176 400.977 121.874 402.17 124.033C403.363 126.178 403.952 128.649 403.938 131.447C403.952 134.388 403.271 137.001 401.893 139.288C400.529 141.561 398.619 143.351 396.161 144.658C393.718 145.95 390.877 146.597 387.638 146.597Z" fill="white"/>
<path d="M472.992 94.9588C469.327 94.9446 466.174 94.0426 463.532 92.2528C460.904 90.4631 458.88 87.8707 457.459 84.4759C456.053 81.081 455.357 76.9972 455.371 72.2244C455.371 67.4659 456.074 63.4105 457.481 60.0582C458.901 56.706 460.925 54.1562 463.553 52.4091C466.195 50.6477 469.341 49.767 472.992 49.767C476.643 49.767 479.782 50.6477 482.41 52.4091C485.052 54.1705 487.083 56.7273 488.503 60.0795C489.924 63.4176 490.627 67.4659 490.613 72.2244C490.613 77.0114 489.903 81.1023 488.482 84.4972C487.076 87.892 485.059 90.4844 482.431 92.2741C479.803 94.0639 476.657 94.9588 472.992 94.9588ZM472.992 87.3097C475.492 87.3097 477.488 86.0526 478.979 83.5384C480.471 81.0241 481.209 77.2528 481.195 72.2244C481.195 68.9148 480.854 66.1591 480.172 63.9574C479.505 61.7557 478.553 60.1009 477.317 58.9929C476.096 57.8849 474.654 57.331 472.992 57.331C470.506 57.331 468.518 58.5739 467.026 61.0597C465.535 63.5455 464.782 67.267 464.768 72.2244C464.768 75.5767 465.101 78.375 465.769 80.6193C466.451 82.8494 467.41 84.5256 468.645 85.6477C469.881 86.7557 471.33 87.3097 472.992 87.3097Z" fill="white" fill-opacity="0.6"/>
<path d="M480.844 154.364V198H471.618V163.121H471.362L461.369 169.385V161.203L472.172 154.364H480.844Z" fill="white" fill-opacity="0.6"/>
<path d="M202.64 146V139.352L218.173 124.97C219.494 123.692 220.602 122.541 221.497 121.518C222.406 120.496 223.095 119.494 223.564 118.514C224.032 117.52 224.267 116.447 224.267 115.297C224.267 114.018 223.976 112.918 223.393 111.994C222.811 111.057 222.015 110.339 221.007 109.842C219.998 109.331 218.855 109.075 217.577 109.075C216.241 109.075 215.077 109.345 214.082 109.885C213.088 110.425 212.321 111.199 211.781 112.207C211.241 113.216 210.971 114.416 210.971 115.808H202.214C202.214 112.953 202.861 110.474 204.153 108.372C205.446 106.27 207.257 104.643 209.586 103.493C211.916 102.342 214.601 101.767 217.64 101.767C220.765 101.767 223.486 102.321 225.801 103.429C228.131 104.523 229.942 106.043 231.234 107.989C232.527 109.935 233.173 112.165 233.173 114.679C233.173 116.327 232.846 117.953 232.193 119.558C231.554 121.163 230.41 122.946 228.763 124.906C227.115 126.852 224.792 129.189 221.795 131.916L215.425 138.159V138.457H233.748V146H202.64Z" fill="white"/>
</g>
<defs>
<filter id="filter0_b_799_476" x="-602" y="-538" width="1719" height="1324" filterUnits="userSpaceOnUse" color-interpolation-filters="sRGB">
<feFlood flood-opacity="0" result="BackgroundImageFix"/>
<feGaussianBlur in="BackgroundImageFix" stdDeviation="300"/>
<feComposite in2="SourceAlpha" operator="in" result="effect1_backgroundBlur_799_476"/>
<feBlend mode="normal" in="SourceGraphic" in2="effect1_backgroundBlur_799_476" result="shape"/>
</filter>
<filter id="filter1_d_799_476" x="-32" y="36" width="154" height="184" filterUnits="userSpaceOnUse" color-interpolation-filters="sRGB">
<feFlood flood-opacity="0" result="BackgroundImageFix"/>
<feColorMatrix in="SourceAlpha" type="matrix" values="0 0 0 0 0 0 0 0 0 0 0 0 0 0 0 0 0 0 127 0" result="hardAlpha"/>
<feMorphology radius="8" operator="dilate" in="SourceAlpha" result="effect1_dropShadow_799_476"/>
<feOffset dy="4"/>
<feGaussianBlur stdDeviation="12"/>
<feComposite in2="hardAlpha" operator="out"/>
<feColorMatrix type="matrix" values="0 0 0 0 0 0 0 0 0 0 0 0 0 0 0 0 0 0 0.2 0"/>
<feBlend mode="normal" in2="BackgroundImageFix" result="effect1_dropShadow_799_476"/>
<feBlend mode="normal" in="SourceGraphic" in2="effect1_dropShadow_799_476" result="shape"/>
</filter>
<filter id="filter2_b_799_476" x="30" y="4" width="205" height="240" filterUnits="userSpaceOnUse" color-interpolation-filters="sRGB">
<feFlood flood-opacity="0" result="BackgroundImageFix"/>
<feGaussianBlur in="BackgroundImageFix" stdDeviation="30"/>
<feComposite in2="SourceAlpha" operator="in" result="effect1_backgroundBlur_799_476"/>
<feBlend mode="normal" in="SourceGraphic" in2="effect1_backgroundBlur_799_476" result="shape"/>
</filter>
<filter id="filter3_b_799_476" x="115" y="4" width="205" height="240" filterUnits="userSpaceOnUse" color-interpolation-filters="sRGB">
<feFlood flood-opacity="0" result="BackgroundImageFix"/>
<feGaussianBlur in="BackgroundImageFix" stdDeviation="30"/>
<feComposite in2="SourceAlpha" operator="in" result="effect1_backgroundBlur_799_476"/>
<feBlend mode="normal" in="SourceGraphic" in2="effect1_backgroundBlur_799_476" result="shape"/>
</filter>
<filter id="filter4_b_799_476" x="200" y="4" width="205" height="240" filterUnits="userSpaceOnUse" color-interpolation-filters="sRGB">
<feFlood flood-opacity="0" result="BackgroundImageFix"/>
<feGaussianBlur in="BackgroundImageFix" stdDeviation="30"/>
<feComposite in2="SourceAlpha" operator="in" result="effect1_backgroundBlur_799_476"/>
<feBlend mode="normal" in="SourceGraphic" in2="effect1_backgroundBlur_799_476" result="shape"/>
</filter>
<filter id="filter5_b_799_476" x="285" y="4" width="205" height="240" filterUnits="userSpaceOnUse" color-interpolation-filters="sRGB">
<feFlood flood-opacity="0" result="BackgroundImageFix"/>
<feGaussianBlur in="BackgroundImageFix" stdDeviation="30"/>
<feComposite in2="SourceAlpha" operator="in" result="effect1_backgroundBlur_799_476"/>
<feBlend mode="normal" in="SourceGraphic" in2="effect1_backgroundBlur_799_476" result="shape"/>
</filter>
<filter id="filter6_b_799_476" x="370" y="4" width="205" height="240" filterUnits="userSpaceOnUse" color-interpolation-filters="sRGB">
<feFlood flood-opacity="0" result="BackgroundImageFix"/>
<feGaussianBlur in="BackgroundImageFix" stdDeviation="30"/>
<feComposite in2="SourceAlpha" operator="in" result="effect1_backgroundBlur_799_476"/>
<feBlend mode="normal" in="SourceGraphic" in2="effect1_backgroundBlur_799_476" result="shape"/>
</filter>
<linearGradient id="paint0_linear_799_476" x1="51.3918" y1="64" x2="487.296" y2="157.626" gradientUnits="userSpaceOnUse">
<stop stop-color="#7577B8"/>
<stop offset="0.495465" stop-color="#5A5C99"/>
<stop offset="1" stop-color="#7577B8"/>
</linearGradient>
<clipPath id="clip0_799_476">
<rect y="64" width="515" height="120" rx="8" fill="white"/>
</clipPath>
</defs>
</svg>
