<?xml version="1.0" encoding="UTF-8"?>
<svg id="Layer_2" data-name="Layer 2" xmlns="http://www.w3.org/2000/svg" viewBox="0 0 260.57 36.38">
  <defs>
    <style>
      .cls-1 {
        fill: #fff;
      }
    </style>
  </defs>
  <path class="cls-1" d="m34.72,0H7C3.14,0,0,3.14,0,7v27.72c0,.55.45,1,1,1h33.72c.55,0,1-.45,1-1V1c0-.55-.45-1-1-1Zm-17.36,3.96h1v9.16h-1V3.96Zm-5.83,22.62c0,.78-.6,1.4-1.36,1.45h.33v3.73h-1v-3.73h.57s-.15,0-.15,0c-.81,0-1.46-.65-1.46-1.46V5.57c0-.81.65-1.46,1.46-1.46h.15c.81,0,1.46.65,1.46,1.46v21.01Zm6.83,5.18h-1v-1.86h1v1.86Zm1.03-3.32c0,.81-.65,1.46-1.46,1.46h-.15c-.81,0-1.46-.65-1.46-1.46v-13.85c0-.81.65-1.46,1.46-1.46h.15c.81,0,1.46.65,1.46,1.46v13.85Zm6.83,3.32h-1v-6.12h1v6.12Zm1.03-7.59c0,.81-.65,1.46-1.46,1.46h-.15c-.81,0-1.46-.65-1.46-1.46v-13.85c0-.81.65-1.46,1.46-1.46h-.42v-4.75h1v4.75h-.43c.81,0,1.46.65,1.46,1.46v13.85Z"/>
  <path class="cls-1" d="m45.18,3.4c0-.92.34-1.72,1.01-2.39S47.67,0,48.6,0s1.77.34,2.44,1.01c.67.66,1.01,1.46,1.01,2.41s-.34,1.77-1.01,2.44c-.66.67-1.46,1.01-2.41,1.01s-1.77-.34-2.44-1.01-1.01-1.49-1.01-2.46Zm6.07,9.49v22.83h-5.27V12.89s5.27,0,5.27,0Z"/>
  <path class="cls-1" d="m55.48,12.89h5.3v2.11c1.84-1.83,3.92-2.74,6.23-2.74,2.66,0,4.73.84,6.21,2.51,1.28,1.42,1.92,3.74,1.92,6.96v13.99h-5.3v-12.75c0-2.25-.31-3.8-.94-4.66-.61-.88-1.72-1.31-3.33-1.31-1.75,0-2.99.58-3.73,1.73-.72,1.14-1.08,3.13-1.08,5.98v11.02h-5.3V12.89h.02Z"/>
  <path class="cls-1" d="m86.07,17.81v17.91h-5.27v-17.91h-2.25v-4.92h2.25V4.52h5.27v8.37h4.1v4.92h-4.1Z"/>
  <path class="cls-1" d="m98.85,12.89v13.1c0,3.78,1.49,5.67,4.48,5.67s4.48-1.89,4.48-5.67v-13.1h5.27v13.22c0,1.83-.23,3.41-.68,4.73-.44,1.19-1.2,2.26-2.27,3.21-1.78,1.55-4.05,2.32-6.8,2.32s-4.99-.77-6.77-2.32c-1.09-.95-1.87-2.02-2.32-3.21-.44-1.06-.66-2.64-.66-4.73v-13.22h5.27Z"/>
  <path class="cls-1" d="m116.48,3.4c0-.92.34-1.72,1.01-2.39S118.97,0,119.9,0s1.77.34,2.44,1.01c.67.66,1.01,1.46,1.01,2.41s-.34,1.77-1.01,2.44c-.66.67-1.46,1.01-2.41,1.01s-1.77-.34-2.44-1.01-1.01-1.49-1.01-2.46Zm6.07,9.49v22.83h-5.27V12.89s5.27,0,5.27,0Z"/>
  <path class="cls-1" d="m134.28,17.81v17.91h-5.27v-17.91h-2.25v-4.92h2.25V4.52h5.27v8.37h4.1v4.92h-4.1Z"/>
  <path class="cls-1" d="m141.79,3.4c0-.92.34-1.72,1.01-2.39S144.28,0,145.21,0s1.77.34,2.44,1.01c.67.66,1.01,1.46,1.01,2.41s-.34,1.77-1.01,2.44c-.66.67-1.46,1.01-2.41,1.01s-1.77-.34-2.44-1.01-1.01-1.49-1.01-2.46Zm6.07,9.49v22.83h-5.27V12.89s5.27,0,5.27,0Z"/>
  <path class="cls-1" d="m152.07,24.14c0-3.3,1.18-6.1,3.54-8.41s5.23-3.47,8.62-3.47,6.3,1.16,8.67,3.49c2.34,2.33,3.52,5.19,3.52,8.58s-1.18,6.29-3.54,8.6c-2.38,2.3-5.29,3.45-8.74,3.45s-6.29-1.17-8.6-3.52c-2.31-2.31-3.47-5.22-3.47-8.72h0Zm5.39.09c0,2.28.61,4.09,1.83,5.41,1.25,1.34,2.9,2.02,4.95,2.02s3.71-.66,4.95-1.99,1.85-3.1,1.85-5.32-.62-3.99-1.85-5.32c-1.25-1.34-2.9-2.02-4.95-2.02s-3.65.67-4.9,2.02-1.88,3.08-1.88,5.2Z"/>
  <path class="cls-1" d="m179.85,12.89h5.3v2.11c1.84-1.83,3.92-2.74,6.23-2.74,2.66,0,4.73.84,6.21,2.51,1.28,1.42,1.92,3.74,1.92,6.96v13.99h-5.3v-12.75c0-2.25-.31-3.8-.94-4.66-.61-.88-1.72-1.31-3.33-1.31-1.75,0-2.99.58-3.73,1.73-.72,1.14-1.08,3.13-1.08,5.98v11.02h-5.3V12.89h.02Z"/>
  <g>
    <path class="cls-1" d="m231.38,19.56h-17.48v11.17h19.23l-.74,5h-24.32V0h24.12v5h-18.29v9.56h17.48v5Z"/>
    <path class="cls-1" d="m242.86,9.36c3.3,5.48,4.69,7.76,5.57,9.18h.05c1.03-1.66,2.99-4.87,5.69-9.18h6.36l-8.76,12.62,8.8,13.74h-6.52c-2.85-4.86-4.77-8.13-5.71-9.76h-.05c-.8,1.44-2.8,4.91-5.69,9.76h-6.3l8.56-13.03-8.39-13.33h6.38Z"/>
  </g>
</svg>