<svg width="inherit" height="inherit" viewBox="0 0 1200 136" fill="none" xmlns="http://www.w3.org/2000/svg">
<rect y="60" width="1200" height="16" rx="8" fill="#D9D9D9" fill-opacity="0.5"/>
<rect y="59" width="902" height="18" rx="9" fill="#284356"/>
<g clip-path="url(#clip0_342_73)">
<path d="M864.789 63.2154C873.275 63.2154 874.759 62.579 874.759 67.8823C874.759 73.1856 873.381 72.4431 864.789 72.5492C858.425 72.5492 855.031 67.8823 855.031 67.8823C855.031 67.8823 858.425 63.2154 864.789 63.2154Z" fill="#FF9D27"/>
<path d="M868.502 75.6251C874.653 72.8673 875.714 72.8673 874.653 69.049C873.593 65.2306 872.638 66.1852 866.592 69.049C862.032 71.0642 860.547 75.519 860.547 75.519C860.547 75.519 863.941 77.8524 868.502 75.6251Z" fill="#FF9D27"/>
<path d="M870.199 69.049C873.593 67.564 874.123 67.0337 874.654 69.049C875.29 71.1703 874.654 71.1703 871.259 72.6552C868.82 73.8219 866.805 72.6552 866.805 72.6552C866.805 72.6552 867.653 70.3218 870.199 69.049Z" fill="#FDF516"/>
<path d="M874.547 66.6095C875.608 62.7911 874.547 62.7911 868.395 60.0334C863.835 58.0181 860.441 60.1394 860.441 60.1394C860.441 60.1394 861.925 64.5942 866.486 66.6095C872.638 69.3672 873.593 70.3218 874.547 66.6095Z" fill="#FF9D27"/>
<path d="M870.092 66.6095C873.487 68.0944 874.017 68.6247 874.547 66.6095C875.184 64.4881 874.547 64.4881 871.153 63.0032C868.714 61.8365 866.698 63.0032 866.698 63.0032C866.698 63.0032 867.653 65.4427 870.092 66.6095Z" fill="#FDF516"/>
<path d="M869.138 65.2306C873.805 65.2306 874.653 64.8064 874.653 67.7762C874.653 70.7461 873.805 70.3218 869.138 70.3218C865.532 70.3218 863.729 67.6701 863.729 67.6701C863.729 67.6701 865.638 65.3367 869.138 65.2306Z" fill="#FDF516"/>
<path d="M884.2 59.9273C888.654 42.3203 873.169 35.9563 873.169 35.9563C873.169 35.9563 904.352 35.9563 904.352 56.9574L884.2 59.9273Z" fill="#3BAACF"/>
<path d="M897.458 56.8514L904.246 56.8514C904.352 35.9563 873.169 35.9563 873.169 35.9563C873.169 35.9563 896.609 39.8808 897.458 56.8514Z" fill="#428BC1"/>
<path d="M884.2 75.8372C888.654 93.4442 873.169 99.8081 873.169 99.8081C873.169 99.8081 904.352 99.8081 904.352 78.807L884.2 75.8372Z" fill="#3BAACF"/>
<path d="M897.458 78.9131H904.246C904.246 99.9142 873.063 99.9142 873.063 99.9142C873.063 99.9142 896.609 95.8837 897.458 78.9131Z" fill="#428BC1"/>
<path d="M923.868 84.5346C899.155 84.4286 878.79 77.4282 878.79 67.8823C878.79 58.3363 899.155 51.336 923.868 51.2299C952.718 51.2299 968.098 67.8823 968.098 67.8823C968.098 67.8823 952.612 84.4286 923.868 84.5346Z" fill="#C5D0D8"/>
<path d="M924.186 77.8525C899.579 77.8525 879.214 73.6098 879.214 67.8823C879.214 62.1547 899.579 57.9121 924.186 57.9121C953.036 57.9121 968.522 67.8823 968.522 67.8823C968.522 67.8823 953.036 77.8525 924.186 77.8525Z" fill="#DAE3EA"/>
<path d="M880.275 76.1554C879.214 76.1554 878.366 75.3069 878.366 74.2462V61.5183C878.366 60.4576 879.32 59.503 880.381 59.503H884.2L884.2 76.0493L880.275 76.1554Z" fill="#C94747"/>
<path d="M880.381 72.4431C879.32 72.4431 878.472 72.0188 878.472 71.3824L878.472 64.17C878.472 63.5336 879.32 63.1093 880.381 63.1093L884.199 63.1093L884.199 72.4431H880.381Z" fill="#F15744"/>
<path d="M875.926 73.2916C875.29 73.2916 874.547 72.5492 874.547 71.9128L874.547 63.6396C874.547 63.0032 875.29 62.4729 875.926 62.4729L878.472 62.4729L878.472 73.2916H875.926Z" fill="#3E4347"/>
<path d="M875.926 71.5946C875.29 71.5946 874.548 71.0642 874.548 70.64L874.548 64.9124C874.548 64.4882 875.184 64.0639 875.926 64.17L878.472 64.17V71.5946L875.926 71.5946Z" fill="#62727A"/>
<path d="M968.097 67.8823C968.097 67.8823 962.582 61.9426 951.869 57.1696L951.869 78.5949C962.582 73.822 968.097 67.8823 968.097 67.8823Z" fill="#C94747"/>
<path d="M968.098 67.8823C968.098 67.8823 962.582 64.276 951.764 61.3062L951.764 74.4583C962.582 71.4885 968.098 67.8823 968.098 67.8823Z" fill="#F15744"/>
<path d="M923.974 73.1855C926.903 76.1145 931.652 76.1145 934.581 73.1855C937.51 70.2566 937.51 65.5079 934.581 62.5789C931.652 59.65 926.903 59.65 923.974 62.5789C921.045 65.5079 921.045 70.2566 923.974 73.1855Z" fill="#EDF4F9"/>
<path d="M925.777 71.3824C927.71 73.3155 930.844 73.3155 932.778 71.3824C934.711 69.4493 934.711 66.3152 932.778 64.3821C930.844 62.449 927.71 62.449 925.777 64.3821C923.844 66.3152 923.844 69.4493 925.777 71.3824Z" fill="#3BAACF"/>
<path d="M902.761 73.1855C905.69 76.1145 910.439 76.1145 913.368 73.1855C916.297 70.2566 916.297 65.5079 913.368 62.5789C910.439 59.65 905.69 59.65 902.761 62.5789C899.832 65.5079 899.832 70.2566 902.761 73.1855Z" fill="#EDF4F9"/>
<path d="M904.564 71.3824C906.497 73.3155 909.632 73.3155 911.565 71.3824C913.498 69.4493 913.498 66.3152 911.565 64.3821C909.632 62.449 906.497 62.449 904.564 64.3821C902.631 66.3152 902.631 69.4493 904.564 71.3824Z" fill="#3BAACF"/>
<path d="M949.43 59.1848C948.794 59.1848 948.157 58.5484 948.157 57.912C948.157 57.2756 948.794 56.6392 949.43 56.6392C950.067 56.6392 950.703 57.2756 950.703 57.912C950.703 58.5484 950.067 59.1848 949.43 59.1848Z" fill="white"/>
<path d="M948.582 63.6396C949.05 64.1082 949.81 64.1082 950.279 63.6396C950.747 63.171 950.747 62.4112 950.279 61.9425C949.81 61.4739 949.05 61.4739 948.582 61.9425C948.113 62.4112 948.113 63.1709 948.582 63.6396Z" fill="white"/>
<path d="M948.582 68.7308C949.05 69.1994 949.81 69.1994 950.279 68.7308C950.747 68.2621 950.747 67.5023 950.279 67.0337C949.81 66.5651 949.05 66.5651 948.582 67.0337C948.113 67.5023 948.113 68.2621 948.582 68.7308Z" fill="white"/>
<path d="M948.476 73.7159C948.944 74.1845 949.704 74.1845 950.173 73.7159C950.641 73.2472 950.641 72.4874 950.173 72.0188C949.704 71.5502 948.944 71.5502 948.476 72.0188C948.007 72.4874 948.007 73.2472 948.476 73.7159Z" fill="white"/>
<path d="M948.582 78.701C949.05 79.1696 949.81 79.1696 950.279 78.701C950.747 78.2323 950.747 77.4726 950.279 77.0039C949.81 76.5353 949.05 76.5353 948.582 77.0039C948.113 77.4726 948.113 78.2324 948.582 78.701Z" fill="white"/>
</g>
<defs>
<clipPath id="clip0_342_73">
<rect width="96" height="96" fill="white" transform="translate(904.882) rotate(45)"/>
</clipPath>
</defs>
</svg>
