<svg width="inherit" height="inherit" viewBox="0 0 160 160" fill="none" xmlns="http://www.w3.org/2000/svg">
<path d="M153.711 48.8537C152.83 46.7778 151.862 44.7456 150.824 42.7656H123.524C132.42 53.1363 137.279 66.1933 137.279 80.0005C137.279 95.2992 131.321 109.682 120.506 120.506C109.69 131.322 95.3074 137.279 80 137.279C64.6925 137.279 50.3184 131.322 39.4941 120.506C28.6786 109.691 22.7213 95.3079 22.7213 80.0005C22.7213 66.1933 27.5796 53.1363 36.4762 42.7656H9.17576C8.12909 44.7456 7.16965 46.7778 6.28871 48.8537C2.11078 58.7272 0 69.2025 0 80.0005C0 90.7986 2.1195 101.274 6.28871 111.147C10.3184 120.672 16.0837 129.228 23.4278 136.572C30.7719 143.917 39.3284 149.682 48.853 153.712C58.7266 157.889 69.2019 160 80 160C90.7981 160 101.273 157.881 111.147 153.712C120.672 149.682 129.228 143.917 136.572 136.572C143.916 129.228 149.682 120.672 153.711 111.147C157.889 101.274 160 90.7986 160 80.0005C160 69.2025 157.88 58.7272 153.711 48.8537Z" fill="white"/>
<path d="M66.5325 24.3087V119.066H93.4579V24.3087C97.8626 25.364 102.11 26.9427 106.123 29.0012H141.648C140.052 27.0736 138.36 25.2158 136.572 23.4277C129.228 16.0837 120.671 10.3183 111.147 6.28868C101.273 2.11076 90.7976 0 79.9996 0C69.2015 0 58.7261 2.11948 48.8526 6.28868C39.328 10.3183 30.7715 16.0837 23.4274 23.4277C21.6393 25.2158 19.9472 27.0736 18.3511 29.0012H53.8766C57.8888 26.9427 62.1365 25.364 66.5412 24.3087H66.5325Z" fill="white"/>
</svg>
